# xmcd
#
# Track frame offsets:
#	150
#	56047
#	109600
#	155960
#	191840
#	220222
#	272020
#
# Disc length: 4170 seconds
#
# Revision: 1
# Processed by: cddbd v1.5.1PL2 Copyright (c) Steve Scherf et al.
# Submitted via: audiograbber 1.83.01
#
DISCID=6a104807
DTITLE=Tenor Triangle - Aztec Blues
DYEAR=1994
DGENRE=Blues
TTITLE0=Cedar's Blues
TTITLE1='Nother Fu'ther
TTITLE2=The Song Is You
TTITLE3=Ballad Medley - But Beautiful/It Could Happen To You/IThought About You
TTITLE4=Melvin's Masquerade
TTITLE5=Aztec Blues
TTITLE6=To The Chief
EXTD=Eric Alexander - tenor sax\nRalph Lalama - tenor sax\nTad Shull - tenor sa
EXTD=x\nMelvin Rhyne - organ\nPeter Berstein - guitar\nKenny Washington - drums
EXTD=\nrec. December 20, 1994
EXTT0=
EXTT1=
EXTT2=
EXTT3=
EXTT4=
EXTT5=
EXTT6=
PLAYORDER=
